<svg fill="#40C057" xmlns="http://www.w3.org/2000/svg"  viewBox="0 0 72 72" width="64px" height="64px"><path d="M 36 4 C 35.05 4 34.159844 4.4509375 33.589844 5.2109375 L 15.859375 29.099609 C 15.359375 29.789609 15.160078 30.660234 15.330078 31.490234 C 15.500078 32.330234 16.019766 33.050469 16.759766 33.480469 L 34.929688 44.089844 C 35.399687 44.359844 35.919219 44.5 36.449219 44.5 C 36.989219 44.5 37.539531 44.350547 38.019531 44.060547 L 55.300781 33.449219 C 56.010781 33.009219 56.509922 32.290937 56.669922 31.460938 C 56.829922 30.630938 56.640625 29.779609 56.140625 29.099609 L 38.410156 5.2109375 C 37.840156 4.4509375 36.95 4 36 4 z M 33 16.080078 L 33 21.849609 C 31.33 22.499609 29.160937 23.350703 26.960938 24.220703 L 33 16.080078 z M 39 28.169922 L 47.099609 31.449219 L 39 36.410156 L 39 28.169922 z M 18.65625 37.695312 C 17.810254 37.666016 16.965625 37.994141 16.359375 38.650391 C 15.379375 39.690391 15.279141 41.279453 16.119141 42.439453 L 33.560547 66.75 C 34.130547 67.53 35.03 68 36 68 C 36.97 68 37.869453 67.53 38.439453 66.75 L 55.880859 42.439453 C 56.720859 41.279453 56.620625 39.690625 55.640625 38.640625 C 54.660625 37.600625 53.079375 37.390391 51.859375 38.150391 L 36.050781 47.970703 L 20.130859 38.140625 C 19.673359 37.859375 19.163848 37.712891 18.65625 37.695312 z M 29.730469 51.119141 L 33 53.140625 L 33 55.679688 L 29.730469 51.119141 z"/></svg>